<svg xmlns="http://www.w3.org/2000/svg" viewBox="0 0 348.11548 196.5336"><defs><style>.cls-1{fill:#06c;stroke:#06c;stroke-miterlimit:10;}</style></defs><title>colored</title><g id="Layer_2" data-name="Layer 2"><g id="Colored"><path class="cls-1" d="M346.60159,181.68829c-41.26-46.05-122.66-39.06-155.52,13.34q-8.325-84.3-16.65-168.59-8.56494,84.285-17.13,168.58c-21.56531-21.77991-43.77807-95.68714-36.54-128.52q14.22,4.935,28.43,9.87-12.495-25.34994-25-50.68-25.005,12.84-50,25.68,11.67,3.885,23.35,7.78c-4.02307,27.45978,1.293,73.61951,9.91,97.13-32.4917-14.6698-87.40113,1.89349-105.67,25.41q32.61-81.54,65.23-163.08c59.04035-42.55029,134.44819-6.58356,162.82,71.03-2.78131,1.02893-12.53912,4.64111-15.32,5.6712-2.13.789-11.12023,4.12085-13.25,4.91059q23.965,12.88412,47.93,25.76819h0q14.415-26.01,28.83-52.02-6.54473,2.18693-13.26,4.33618-7.71816,2.46909-15.2843,4.7655a151.22878,151.22878,0,0,0-50.4657-78.83172c20.58594-8.35688,66.1308-.26575,82.36945,14.3728Q313.99188,100.14694,346.60159,181.68829Z"/></g></g></svg>